<svg width="20.000000" height="18.000000" viewBox="0 0 20 18" fill="none" xmlns="http://www.w3.org/2000/svg" xmlns:xlink="http://www.w3.org/1999/xlink">
	<desc>
			Created with Pixso.
	</desc>
	<defs/>
	<path id="Vector" d="M14.32 -0.25C15.83 -0.23 17.27 0.41 18.3 1.53C19.34 2.64 19.87 4.13 19.78 5.61L19.78 11.85C19.87 13.37 19.34 14.86 18.3 15.98C17.27 17.1 15.83 17.74 14.31 17.75L5.25 17.75C2.08 17.75 -0.21 15.19 -0.21 11.89L-0.21 5.61C-0.21 2.31 2.08 -0.25 5.25 -0.25L14.32 -0.25ZM14.3 1.28L5.25 1.28C2.95 1.28 1.31 3.12 1.31 5.61L1.31 11.89C1.31 14.38 2.95 16.22 5.25 16.22L14.3 16.22C15.4 16.21 16.44 15.75 17.19 14.94C17.94 14.13 18.33 13.04 18.26 11.89L18.27 5.57C18.33 4.46 17.94 3.38 17.19 2.57C16.44 1.76 15.4 1.29 14.3 1.28ZM15.81 5.39C16.05 5.69 16.03 6.12 15.78 6.39L15.7 6.47L11.59 9.78C10.59 10.56 9.21 10.6 8.17 9.89L8.01 9.77L3.88 6.47C3.55 6.21 3.5 5.72 3.76 5.39C3.99 5.09 4.41 5.02 4.73 5.21L4.82 5.27L8.95 8.57C9.41 8.93 10.05 8.96 10.53 8.66L10.65 8.58L14.75 5.27C15.08 5.01 15.55 5.06 15.81 5.39Z" fill="#EA7C69" fill-opacity="1.000000" fill-rule="nonzero"/>
</svg>