<svg width="19.000000" height="20.000000" viewBox="0 0 19 20" fill="none" xmlns="http://www.w3.org/2000/svg" xmlns:xlink="http://www.w3.org/1999/xlink">
	<desc>
			Created with Pixso.
	</desc>
	<defs/>
	<path id="Vector" d="M10.95 0.71L11.13 0.88L11.85 1.6C12.09 1.85 12.42 2 12.76 2.03L12.91 2.04L13.94 2.04C15.54 2.04 16.85 3.29 16.95 4.87L16.95 5.05L16.95 6.08C16.95 6.43 17.07 6.76 17.29 7.03L17.39 7.14L18.11 7.86C19.24 8.99 19.29 10.79 18.25 11.98L18.12 12.12L17.39 12.85C17.14 13.09 16.99 13.42 16.96 13.76L16.95 13.91L16.95 14.94C16.95 16.54 15.7 17.85 14.12 17.95L13.94 17.95L12.91 17.95C12.56 17.95 12.23 18.07 11.96 18.29L11.85 18.39L11.13 19.11C10.01 20.24 8.2 20.29 7.01 19.25L6.86 19.11L6.14 18.39C5.9 18.14 5.57 17.99 5.23 17.96L5.08 17.95L4.05 17.95C2.45 17.95 1.14 16.7 1.04 15.12L1.04 14.94L1.04 13.91C1.04 13.56 0.92 13.23 0.7 12.96L0.6 12.85L-0.12 12.13C-1.25 11 -1.3 9.2 -0.26 8.02L-0.13 7.87L0.6 7.14C0.85 6.89 1 6.57 1.03 6.23L1.04 6.08L1.04 5.05L1.04 4.87C1.13 3.35 2.35 2.13 3.87 2.04L4.05 2.04L5.08 2.04C5.43 2.04 5.76 1.92 6.03 1.7L6.14 1.6L6.86 0.88C7.99 -0.25 9.79 -0.3 10.95 0.71ZM8.04 1.84L7.92 1.94L7.2 2.66C6.68 3.18 6 3.48 5.28 3.53L5.08 3.54L4.05 3.54C3.26 3.54 2.61 4.14 2.55 4.91L2.54 5.05L2.54 6.08C2.54 6.81 2.27 7.51 1.8 8.06L1.66 8.2L0.93 8.93C0.38 9.48 0.35 10.36 0.84 10.95L0.94 11.07L1.66 11.79C2.18 12.3 2.48 12.99 2.53 13.71L2.54 13.91L2.54 14.94C2.54 15.73 3.14 16.38 3.91 16.44L4.05 16.45L5.08 16.45C5.81 16.45 6.51 16.72 7.06 17.19L7.2 17.33L7.93 18.05C8.48 18.61 9.36 18.64 9.95 18.15L10.07 18.05L10.79 17.33C11.31 16.81 11.99 16.51 12.71 16.46L12.91 16.45L13.94 16.45C14.73 16.45 15.38 15.85 15.45 15.08L15.45 14.94L15.45 13.91C15.45 13.18 15.72 12.48 16.19 11.93L16.33 11.79L17.06 11.06C17.61 10.51 17.64 9.63 17.15 9.04L17.05 8.92L16.33 8.2C15.81 7.68 15.51 7 15.46 6.28L15.45 6.08L15.45 5.05C15.45 4.26 14.85 3.61 14.08 3.54L13.94 3.54L12.91 3.54C12.18 3.54 11.48 3.27 10.93 2.8L10.79 2.66L10.1 1.97L10.06 1.94C9.51 1.38 8.63 1.35 8.04 1.84ZM12.09 12.04C12.16 12.11 12.22 12.19 12.26 12.28C12.29 12.37 12.31 12.47 12.31 12.57C12.31 12.67 12.29 12.76 12.26 12.85C12.22 12.94 12.16 13.03 12.09 13.1C11.95 13.24 11.76 13.32 11.56 13.32C11.36 13.32 11.17 13.24 11.03 13.1C10.96 13.03 10.91 12.94 10.87 12.85C10.83 12.76 10.81 12.67 10.81 12.57C10.81 12.47 10.83 12.37 10.87 12.28C10.91 12.19 10.96 12.11 11.03 12.04C11.31 11.76 11.81 11.76 12.09 12.04ZM12.1 6.89C12.36 7.16 12.39 7.58 12.17 7.87L12.1 7.95L6.96 13.09C6.66 13.39 6.19 13.39 5.89 13.09C5.63 12.83 5.6 12.41 5.82 12.12L5.89 12.03L11.03 6.89C11.33 6.6 11.8 6.6 12.1 6.89ZM6.95 6.9C7.09 7.04 7.17 7.23 7.17 7.43C7.17 7.53 7.16 7.62 7.12 7.71C7.08 7.8 7.02 7.88 6.95 7.96C6.88 8.03 6.8 8.08 6.71 8.12C6.62 8.16 6.52 8.18 6.42 8.18C6.32 8.18 6.23 8.16 6.14 8.12C6.05 8.08 5.96 8.03 5.89 7.96C5.82 7.88 5.77 7.8 5.73 7.71C5.69 7.62 5.67 7.53 5.67 7.43C5.67 7.33 5.69 7.23 5.73 7.14C5.77 7.05 5.82 6.96 5.89 6.9C6.18 6.62 6.67 6.62 6.95 6.9Z" fill="#EA7C69" fill-opacity="1.000000" fill-rule="nonzero"/>
</svg>