<svg width="48.000000" height="48.000000" viewBox="0 0 48 48" fill="none" xmlns="http://www.w3.org/2000/svg" xmlns:xlink="http://www.w3.org/1999/xlink">
	<desc>
			Created with Pixso.
	</desc>
	<defs>
		<clipPath id="clip2_2943">
			<rect id="Icon / Line / Trash" width="20.000000" height="20.000000" transform="translate(14.000000 14.000000)" fill="white" fill-opacity="0"/>
		</clipPath>
	</defs>
	<rect id="Icon / Line / Trash" width="20.000000" height="20.000000" transform="translate(14.000000 14.000000)" fill="#000000" fill-opacity="0"/>
	<g clip-path="url(#clip2_2943)">
		<path id="Vector" d="M29.73 21.26L29.81 21.26C30.12 21.29 30.35 21.54 30.37 21.85L30.36 22.02L30.1 25.23L29.83 28.36C29.77 28.99 29.71 29.52 29.67 29.93C29.51 31.38 28.57 32.27 27.16 32.3C24.95 32.34 22.83 32.34 20.77 32.29C19.4 32.27 18.47 31.36 18.32 29.94L18.21 28.89L18.03 26.85L17.84 24.62L17.62 21.93C17.59 21.59 17.84 21.29 18.18 21.26C18.49 21.24 18.76 21.45 18.82 21.75L18.85 22L19.05 24.51L19.28 27.12C19.38 28.24 19.46 29.16 19.53 29.8C19.62 30.61 20.05 31.03 20.8 31.04C22.84 31.09 24.95 31.09 27.14 31.05C27.93 31.03 28.37 30.62 28.46 29.79L28.56 28.75C28.59 28.43 28.63 28.07 28.66 27.69L28.89 25.12L29.15 21.83C29.18 21.52 29.43 21.28 29.73 21.26ZM17.1 19.82C16.77 19.82 16.5 19.54 16.5 19.19C16.5 18.88 16.72 18.62 17.02 18.58L17.1 18.57L19.76 18.57C20.08 18.57 20.35 18.36 20.45 18.06L20.47 17.97L20.68 16.92C20.86 16.22 21.45 15.72 22.14 15.67L22.28 15.66L25.72 15.66C26.42 15.66 27.04 16.12 27.28 16.82L27.32 16.96L27.52 17.97C27.58 18.29 27.83 18.52 28.14 18.56L28.23 18.57L30.89 18.57C31.22 18.57 31.5 18.85 31.5 19.19C31.5 19.51 31.27 19.77 30.97 19.81L30.89 19.82L17.1 19.82ZM25.72 16.91L22.28 16.91C22.1 16.91 21.95 17.01 21.89 17.14L21.87 17.2L21.67 18.21C21.65 18.34 21.61 18.46 21.57 18.57L26.42 18.57C26.4 18.5 26.37 18.43 26.35 18.35L26.32 18.21L26.13 17.24C26.09 17.07 25.95 16.95 25.79 16.92L25.72 16.91Z" fill="#FF7CA3" fill-opacity="1.000000" fill-rule="nonzero"/>
	</g>
	<rect id="Type=Line, State=Icon Default, Icon=True" rx="7.500000" width="47.000000" height="47.000000" transform="translate(0.500000 0.500000)" stroke="#FF7CA3" stroke-opacity="1.000000" stroke-width="1.000000"/>
</svg>
