<svg width="19.000000" height="19.000000" viewBox="0 0 19 19" fill="none" xmlns="http://www.w3.org/2000/svg" xmlns:xlink="http://www.w3.org/1999/xlink">
	<desc>
			Created with Pixso.
	</desc>
	<defs/>
	<path d="M6.73 -0.22C8 -1.23 9.78 -1.27 11.08 -0.34L11.25 -0.22L17.33 4.65C18 5.17 18.42 5.94 18.49 6.78L18.5 6.98L18.5 15.09C18.5 17.18 16.84 18.88 14.78 18.99L12.79 18.99C11.83 18.97 11.07 18.23 11 17.3L10.99 17.16L10.99 14.3C10.99 13.99 10.75 13.73 10.45 13.68L10.36 13.67L7.68 13.67C7.37 13.68 7.11 13.91 7.07 14.21L7.06 14.3L7.06 17.15C7.06 17.21 7.04 17.28 7.04 17.33L7.03 17.35L7.01 17.42C6.9 18.27 6.2 18.92 5.33 18.98L5.2 18.99L3.41 18.99C1.32 18.99 -0.39 17.35 -0.5 15.29L-0.5 6.98C-0.5 6.13 -0.12 5.34 0.5 4.79L6.73 -0.22ZM10.38 0.87C9.62 0.26 8.54 0.23 7.74 0.76L7.58 0.87L1.5 5.77C1.16 6.03 0.95 6.42 0.9 6.83L0.88 6.99L0.88 15.09C0.88 16.42 1.92 17.51 3.25 17.59L5.2 17.59C5.42 17.59 5.61 17.44 5.63 17.23L5.66 17.05L5.67 17L5.67 14.3C5.67 13.23 6.49 12.36 7.54 12.28L10.36 12.28C11.42 12.28 12.29 13.1 12.38 14.15L12.38 17.16C12.38 17.37 12.53 17.55 12.73 17.59L14.58 17.59C15.92 17.59 17.01 16.56 17.09 15.25L17.11 15.09L17.11 6.99C17.09 6.56 16.92 6.16 16.61 5.86L16.48 5.75L10.38 0.87Z" fill="#FFFFFF" fill-opacity="1.000000" fill-rule="nonzero"/>
</svg>