<svg width="56.000000" height="56.000000" viewBox="0 0 56 56" fill="none" xmlns="http://www.w3.org/2000/svg" xmlns:xlink="http://www.w3.org/1999/xlink">
	<desc>
			Created with Pixso.
	</desc>
	<defs>
		<clipPath id="clip6_3825">
			<rect id="bx:bxs-store-alt" width="40.000000" height="40.000000" transform="translate(8.000000 8.000000)" fill="white" fill-opacity="0"/>
		</clipPath>
		<linearGradient x1="28.000044" y1="11.333374" x2="28.000044" y2="43.000042" id="paint_linear_6_3824_0" gradientUnits="userSpaceOnUse">
			<stop stop-color="#EA9769"/>
			<stop offset="1.000000" stop-color="#EA6969"/>
		</linearGradient>
	</defs>
	<g opacity="0.260000">
		<rect id="Rectangle 19" rx="12.000000" width="56.000000" height="56.000000" fill="#EB966A" fill-opacity="1.000000"/>
	</g>
	<rect id="bx:bxs-store-alt" width="40.000000" height="40.000000" transform="translate(8.000000 8.000000)" fill="#FFFFFF" fill-opacity="0"/>
	<g clip-path="url(#clip6_3825)">
		<path id="Vector" d="M39.66 11.33L16.33 11.33C13.57 11.33 11.33 13.57 11.33 16.33L11.33 21.05C11.33 22.8 11.97 24.4 13 25.62L13 41.33C13 41.77 13.17 42.19 13.48 42.51C13.8 42.82 14.22 43 14.66 43L28 43C28.44 43 28.86 42.82 29.17 42.51C29.49 42.19 29.66 41.77 29.66 41.33L29.66 33L36.33 33L36.33 41.33C36.33 41.77 36.5 42.19 36.82 42.51C37.13 42.82 37.55 43 38 43L41.33 43C41.77 43 42.19 42.82 42.51 42.51C42.82 42.19 43 41.77 43 41.33L43 25.62C44.03 24.4 44.66 22.8 44.66 21.05L44.66 16.33C44.66 13.57 42.42 11.33 39.66 11.33ZM41.33 16.33L41.33 21.05C41.33 22.95 39.91 24.57 38.18 24.66L38 24.66C36.16 24.66 34.66 23.17 34.66 21.33L34.66 14.66L39.66 14.66C40.58 14.66 41.33 15.41 41.33 16.33ZM24.66 21.33L24.66 14.66L31.33 14.66L31.33 21.33C31.33 23.17 29.83 24.66 28 24.66C26.16 24.66 24.66 23.17 24.66 21.33ZM14.66 16.33C14.66 15.41 15.41 14.66 16.33 14.66L21.33 14.66L21.33 21.33C21.33 23.17 19.83 24.66 18 24.66L17.81 24.66C16.08 24.57 14.66 22.95 14.66 21.05L14.66 16.33ZM24.66 34.66L18 34.66L18 29.66L24.66 29.66L24.66 34.66Z" fill="url(#paint_linear_6_3824_0)" fill-opacity="1.000000" fill-rule="nonzero"/>
	</g>
</svg>
