<svg width="17.000000" height="20.000000" viewBox="0 0 17 20" fill="none" xmlns="http://www.w3.org/2000/svg" xmlns:xlink="http://www.w3.org/1999/xlink">
	<desc>
			Created with Pixso.
	</desc>
	<defs/>
	<path id="Vector" d="M10.6 17.69C10.9 17.93 10.95 18.37 10.71 18.67C10.53 18.89 10.33 19.09 10.11 19.25C9.38 19.82 8.46 20.08 7.54 19.97C6.62 19.86 5.78 19.39 5.21 18.66C4.97 18.36 5.02 17.92 5.32 17.68C5.62 17.44 6.05 17.49 6.29 17.79C6.63 18.23 7.14 18.52 7.7 18.58C8.26 18.65 8.83 18.49 9.28 18.14C9.41 18.04 9.53 17.92 9.63 17.79C9.87 17.49 10.31 17.44 10.6 17.69ZM1.15 6.99L1.16 6.4C1.17 6.14 1.18 5.91 1.2 5.68C1.5 2.44 4.59 0 7.96 0L8.03 0C11.4 0 14.49 2.44 14.8 5.68C14.82 5.89 14.82 6.07 14.83 6.33L14.83 7.11C14.83 7.19 14.83 7.25 14.83 7.31L14.84 7.5L14.88 7.69C15.03 8.21 15.27 8.7 15.61 9.12L15.76 9.3L15.82 9.38C16.23 9.99 16.46 10.69 16.5 11.45L16.49 11.86C16.47 12.76 16.13 13.63 15.53 14.35C14.73 15.21 13.64 15.73 12.48 15.84C9.5 16.16 6.48 16.16 3.51 15.84C2.34 15.73 1.26 15.2 0.42 14.32C-0.2 13.56 -0.52 12.62 -0.5 11.66L-0.5 11.42C-0.47 10.69 -0.24 9.98 0.16 9.38L0.23 9.29C0.7 8.78 1.02 8.15 1.16 7.47L1.14 7.53L1.15 6.99ZM8.03 1.39L7.96 1.39C5.26 1.39 2.8 3.34 2.57 5.8C2.56 5.94 2.55 6.08 2.55 6.22L2.53 6.69L2.52 7.61L2.51 7.75C2.32 8.68 1.88 9.54 1.24 10.24L1.29 10.18L1.21 10.32C1.04 10.62 0.93 10.94 0.89 11.26L0.87 11.45L0.87 11.67C0.86 12.31 1.08 12.93 1.45 13.39C2.02 13.99 2.8 14.37 3.65 14.45C6.53 14.77 9.45 14.77 12.35 14.45C13.18 14.38 13.96 14 14.5 13.42C14.91 12.93 15.13 12.3 15.12 11.65L15.12 11.49C15.1 11.01 14.95 10.56 14.68 10.16L14.7 10.19L14.56 10.03C14.08 9.44 13.74 8.76 13.55 8.03L13.48 7.75L13.47 7.66C13.46 7.53 13.45 7.4 13.45 7.26L13.45 6.36C13.45 6.13 13.44 5.97 13.43 5.81C13.19 3.34 10.73 1.39 8.03 1.39Z" fill="#EA7C69" fill-opacity="1.000000" fill-rule="nonzero"/>
</svg>