<svg width="20.000000" height="20.000000" viewBox="0 0 20 20" fill="none" xmlns="http://www.w3.org/2000/svg" xmlns:xlink="http://www.w3.org/1999/xlink">
	<desc>
			Created with Pixso.
	</desc>
	<defs/>
	<path id="Vector" d="M8.33 -0.98C10.71 -0.98 12.65 0.89 12.76 3.24L12.76 3.45L12.76 4.38C12.76 4.8 12.43 5.13 12.01 5.13C11.63 5.13 11.32 4.85 11.27 4.49L11.26 4.38L11.26 3.45C11.26 1.89 10.04 0.61 8.5 0.52L8.33 0.52L3.45 0.52C1.89 0.52 0.61 1.74 0.52 3.28L0.52 3.45L0.52 14.58C0.52 16.14 1.74 17.42 3.28 17.51L3.45 17.52L8.34 17.52C9.89 17.52 11.17 16.3 11.26 14.76L11.26 14.59L11.26 13.65C11.26 13.24 11.6 12.9 12.01 12.9C12.39 12.9 12.7 13.18 12.75 13.55L12.76 13.65L12.76 14.59C12.76 16.96 10.89 18.9 8.55 19.01L8.34 19.02L3.45 19.02C1.07 19.02 -0.87 17.14 -0.98 14.79L-0.98 14.58L-0.98 3.45C-0.98 1.07 0.89 -0.87 3.24 -0.98L3.45 -0.98L8.33 -0.98ZM16.32 5.5L16.41 5.57L19.33 8.48C19.36 8.51 19.38 8.54 19.4 8.57L19.33 8.48C19.36 8.52 19.39 8.55 19.42 8.58C19.43 8.61 19.45 8.63 19.46 8.66C19.47 8.66 19.47 8.67 19.47 8.67C19.48 8.7 19.49 8.72 19.5 8.75C19.51 8.76 19.51 8.77 19.52 8.78C19.52 8.8 19.53 8.82 19.53 8.84C19.54 8.86 19.54 8.87 19.54 8.88C19.55 8.9 19.55 8.92 19.55 8.94C19.55 8.96 19.55 8.97 19.55 8.99C19.55 9 19.55 9.01 19.55 9.02L19.55 9.04C19.55 9.06 19.55 9.08 19.55 9.09L19.55 9.02C19.55 9.06 19.55 9.11 19.54 9.15C19.54 9.16 19.54 9.18 19.53 9.19C19.53 9.21 19.52 9.23 19.52 9.26C19.51 9.27 19.51 9.28 19.5 9.29C19.49 9.31 19.48 9.34 19.47 9.36C19.47 9.36 19.47 9.37 19.46 9.38C19.43 9.44 19.39 9.5 19.33 9.55L19.33 9.55L16.41 12.46C16.11 12.76 15.64 12.76 15.34 12.46C15.08 12.19 15.06 11.78 15.27 11.48L15.35 11.4L16.99 9.77L6.76 9.77C6.35 9.77 6.01 9.43 6.01 9.02C6.01 8.64 6.3 8.32 6.66 8.27L6.76 8.27L16.99 8.27L15.35 6.63C15.08 6.37 15.06 5.95 15.27 5.66L15.34 5.57C15.61 5.31 16.03 5.28 16.32 5.5Z" fill="#EA7C69" fill-opacity="1.000000" fill-rule="nonzero"/>
</svg>