<svg width="24.000000" height="24.000000" viewBox="0 0 24 24" fill="none" xmlns="http://www.w3.org/2000/svg" xmlns:xlink="http://www.w3.org/1999/xlink">
	<desc>
			Created with Pixso.
	</desc>
	<defs>
		<clipPath id="clip6_3789">
			<rect id="Icon / Line / Dashboard" width="24.000000" height="24.000000" fill="white" fill-opacity="0"/>
		</clipPath>
	</defs>
	<rect id="Icon / Line / Dashboard" width="24.000000" height="24.000000" fill="#000000" fill-opacity="0"/>
	<g clip-path="url(#clip6_3789)">
		<path id="Vector" d="M10.49 6.76C10.58 6.93 10.63 7.12 10.65 7.32L11.04 12.8C11.04 12.88 11.08 12.95 11.14 13C11.18 13.04 11.23 13.06 11.29 13.07L11.35 13.07L16.93 12.73C17.38 12.71 17.83 12.86 18.16 13.17C18.49 13.47 18.67 13.9 18.67 14.39C18.42 18 15.77 21.02 12.15 21.8C8.54 22.58 4.83 20.94 3.05 17.78C2.58 16.96 2.26 16.07 2.11 15.17L2.06 14.83C2.02 14.58 2 14.32 2 14.07L2 13.83C2.01 10.06 4.66 6.8 8.38 5.92L8.64 5.86L8.78 5.84C9.5 5.74 10.21 6.12 10.49 6.76ZM9.01 7.27L8.93 7.28L8.7 7.33C5.73 8.05 3.6 10.61 3.48 13.62L3.48 13.86C3.47 14.05 3.48 14.23 3.5 14.43L3.53 14.64C3.63 15.49 3.9 16.32 4.34 17.07C5.81 19.68 8.86 21.03 11.83 20.39C14.81 19.74 16.99 17.26 17.19 14.34C17.19 14.29 17.17 14.25 17.14 14.22C17.12 14.2 17.09 14.19 17.06 14.18L17.02 14.18L11.45 14.51C10.98 14.55 10.52 14.39 10.17 14.09C9.81 13.79 9.59 13.36 9.56 12.91L9.17 7.42C9.17 7.41 9.17 7.4 9.15 7.37C9.13 7.31 9.07 7.28 9.01 7.27ZM13.42 2C17.7 2.12 21.3 5.2 21.99 9.34L22 9.45L21.99 9.65C21.97 9.95 21.85 10.23 21.65 10.46C21.4 10.75 21.04 10.92 20.65 10.95L14.01 11.39C13.16 11.43 12.42 10.8 12.37 9.97L11.92 3.44L11.93 3.3L11.95 3.13C12.01 2.84 12.16 2.57 12.39 2.37C12.67 2.12 13.04 1.98 13.42 2ZM13.41 3.44L13.85 9.87C13.85 9.91 13.88 9.94 13.92 9.94L20.51 9.51L20.48 9.33C19.83 6.08 17.01 3.66 13.62 3.45L13.41 3.44Z" fill="#EA7C69" fill-opacity="1.000000" fill-rule="nonzero"/>
	</g>
</svg>