<svg width="19.000000" height="20.000000" viewBox="0 0 19 20" fill="none" xmlns="http://www.w3.org/2000/svg" xmlns:xlink="http://www.w3.org/1999/xlink">
	<desc>
			Created with Pixso.
	</desc>
	<defs/>
	<path id="Vector" d="M9.61 0C10.32 -0.01 11 0.28 11.49 0.77C11.99 1.27 12.25 1.94 12.23 2.57L12.24 2.72C12.26 2.87 12.31 3.01 12.39 3.14C12.54 3.39 12.79 3.58 13.08 3.65C13.37 3.72 13.68 3.68 13.98 3.51L14.14 3.43C15.37 2.86 16.85 3.31 17.53 4.47L18.14 5.52C18.16 5.54 18.17 5.57 18.18 5.6L18.24 5.71C18.79 6.86 18.4 8.22 17.36 8.92L17.1 9.08C16.97 9.17 16.85 9.29 16.77 9.43C16.62 9.69 16.58 9.99 16.65 10.28C16.73 10.57 16.92 10.81 17.21 10.97L17.38 11.08C17.88 11.42 18.25 11.93 18.41 12.52C18.59 13.18 18.49 13.88 18.13 14.48L17.48 15.55L17.38 15.7C16.6 16.8 15.1 17.13 13.95 16.48L13.81 16.41C13.67 16.35 13.52 16.31 13.38 16.31C13.07 16.31 12.78 16.43 12.57 16.64C12.35 16.85 12.23 17.13 12.23 17.46L12.23 17.64C12.12 18.97 10.98 20 9.61 20L8.38 20C6.93 20 5.75 18.84 5.75 17.47L5.75 17.32C5.73 17.18 5.68 17.04 5.6 16.9C5.45 16.64 5.2 16.46 4.91 16.38C4.62 16.31 4.31 16.35 4.01 16.52L3.83 16.6C3.27 16.85 2.63 16.9 2.04 16.73C1.37 16.54 0.8 16.1 0.47 15.52L-0.17 14.44L-0.25 14.28C-0.83 13.08 -0.38 11.64 0.78 10.98L0.88 10.92C1.19 10.71 1.37 10.36 1.37 10C1.37 9.59 1.16 9.22 0.77 9.01L0.62 8.91C-0.49 8.15 -0.84 6.68 -0.15 5.5L0.5 4.46C1.23 3.23 2.83 2.81 4.06 3.5L4.19 3.57C4.33 3.63 4.47 3.66 4.62 3.66C5.24 3.66 5.75 3.17 5.76 2.54L5.77 2.34C5.82 1.74 6.09 1.18 6.52 0.75C7.01 0.27 7.68 0 8.38 0L9.61 0ZM9.61 1.44L8.38 1.44C8.07 1.44 7.78 1.56 7.57 1.77C7.38 1.96 7.27 2.2 7.25 2.43L7.23 2.74C7.13 4.07 5.99 5.11 4.61 5.11C4.25 5.11 3.9 5.03 3.54 4.87L3.35 4.77C2.8 4.46 2.1 4.64 1.78 5.19L1.13 6.24C0.83 6.75 0.98 7.39 1.44 7.7L1.7 7.87C2.42 8.34 2.85 9.14 2.85 10C2.85 10.84 2.43 11.63 1.7 12.12L1.54 12.22C1.03 12.51 0.83 13.14 1.07 13.63L1.13 13.74L1.75 14.8C1.9 15.06 2.15 15.26 2.44 15.34C2.7 15.41 2.98 15.39 3.2 15.3L3.31 15.24C3.91 14.9 4.62 14.81 5.29 14.98C5.96 15.16 6.54 15.59 6.87 16.17C7.06 16.47 7.17 16.81 7.22 17.19L7.24 17.55C7.3 18.11 7.79 18.55 8.38 18.55L9.61 18.55C10.21 18.55 10.7 18.1 10.75 17.55L10.76 17.44C10.75 16.75 11.03 16.1 11.52 15.61C12.02 15.13 12.69 14.86 13.4 14.86C13.75 14.87 14.1 14.95 14.45 15.11L14.76 15.26C15.26 15.48 15.85 15.32 16.15 14.9L16.22 14.79L16.86 13.74C17.02 13.48 17.06 13.18 16.98 12.89C16.91 12.64 16.75 12.42 16.56 12.28L16.29 12.11C15.77 11.77 15.39 11.25 15.23 10.65C15.05 9.99 15.14 9.29 15.49 8.71C15.68 8.38 15.94 8.1 16.28 7.87L16.44 7.77C16.96 7.48 17.15 6.85 16.92 6.35L16.85 6.22L16.83 6.19L16.25 5.2C15.97 4.73 15.4 4.52 14.91 4.68L14.8 4.73L14.69 4.78C14.1 5.12 13.38 5.22 12.71 5.05C12.04 4.88 11.46 4.45 11.11 3.87C10.93 3.57 10.82 3.23 10.77 2.85L10.76 2.6C10.77 2.29 10.65 2 10.43 1.78C10.22 1.57 9.92 1.44 9.61 1.44ZM9 6.73C10.84 6.73 12.33 8.19 12.33 10C12.33 11.8 10.84 13.26 9 13.26C7.16 13.26 5.66 11.8 5.66 10C5.66 8.19 7.16 6.73 9 6.73ZM9 8.17C7.97 8.17 7.14 8.99 7.14 10C7.14 11 7.97 11.82 9 11.82C10.02 11.82 10.86 11 10.86 10C10.86 8.99 10.02 8.17 9 8.17Z" fill="#EA7C69" fill-opacity="1.000000" fill-rule="nonzero"/>
</svg>